<svg width="32" height="37" viewBox="0 0 32 37" fill="none" xmlns="http://www.w3.org/2000/svg">
<path d="M4.57143 0C4.25143 0 3.97714 0.0454786 3.70286 0.136436C1.92 0.500264 0.502857 1.9101 0.137143 3.68376C0 3.95664 0 4.22951 0 4.54786V29.5611C0 33.3358 3.06286 36.3829 6.85714 36.3829H32V31.835H6.85714C5.57714 31.835 4.57143 30.8345 4.57143 29.5611C4.57143 28.2877 5.57714 27.2871 6.85714 27.2871H32V2.27393C32 1.00053 30.9943 0 29.7143 0H27.4286V13.6436L22.8571 9.09571L18.2857 13.6436V0H4.57143Z" fill="#0D9488"/>
</svg>
