<svg width="34" height="33" viewBox="0 0 34 33" fill="none" xmlns="http://www.w3.org/2000/svg">
<path d="M12.75 0C11.56 0 10.455 0.412 9.69 1.1536C8.925 1.8952 8.5 2.9664 8.5 4.12C8.5 5.2736 9.265 6.0976 9.69 7.0864C9.8175 7.3336 9.8175 7.7456 9.8175 8.24H0V32.96H9.8175C9.8175 32.4656 9.775 32.0536 9.69 31.8064C9.265 30.8176 8.5 29.9936 8.5 28.84C8.5 27.6864 8.925 26.6152 9.69 25.8736C10.455 25.132 11.56 24.72 12.75 24.72C13.94 24.72 15.045 25.132 15.81 25.8736C16.575 26.6152 17 27.6864 17 28.84C17 29.9936 16.235 30.8176 15.81 31.8064C15.6825 32.0536 15.6825 32.4656 15.6825 32.96H25.5V23.4428C26.01 23.4428 26.435 23.484 26.69 23.5664C27.71 23.9784 28.56 24.72 29.75 24.72C30.94 24.72 32.045 24.308 32.81 23.5664C33.575 22.8248 34 21.7536 34 20.6C34 19.4464 33.575 18.3752 32.81 17.6336C32.045 16.892 30.94 16.48 29.75 16.48C28.56 16.48 27.71 17.2216 26.69 17.6336C26.435 17.7572 26.01 17.7572 25.5 17.7572V8.24H15.6825C15.6825 7.7456 15.725 7.3336 15.81 7.0864C16.235 6.0976 17 5.2736 17 4.12C17 2.9664 16.575 1.8952 15.81 1.1536C15.045 0.412 13.94 0 12.75 0Z" fill="#0D9488"/>
</svg>
